# Blender v2.77 (sub 0) OBJ File: ''
# www.blender.org
mtllib island.mtl
o Cone
v 1.345981 1.356961 3.216055
v 1.202121 1.355304 3.082898
v 1.035048 1.354640 2.980352
v 0.851184 1.354995 2.912357
v 0.657594 1.356356 2.881527
v 0.461718 1.358669 2.889047
v 0.271082 1.361846 2.934628
v 0.093014 1.365765 3.016517
v -0.065643 1.370275 3.131568
v 0.576349 -0.618145 3.927829
v -0.198794 1.375203 3.275360
v -0.301320 1.380360 3.442367
v -0.369282 1.385548 3.626170
v -0.400068 1.390566 3.819707
v -0.392495 1.395222 4.015540
v -0.346853 1.399338 4.206142
v -0.264898 1.402755 4.384191
v -0.149778 1.405342 4.542842
v -0.005917 1.406999 4.675999
v 0.161155 1.407662 4.778545
v 0.345020 1.407307 4.846539
v 0.538610 1.405947 4.877369
v 0.734486 1.403634 4.869849
v 0.925122 1.400457 4.824268
v 1.103190 1.396538 4.742379
v 1.261847 1.392027 4.627327
v 1.394998 1.387099 4.483535
v 1.497524 1.381942 4.316528
v 1.565485 1.376755 4.132725
v 1.596271 1.371737 3.939188
v 1.588698 1.367080 3.743355
v 1.543056 1.362965 3.552753
v 1.461101 1.359548 3.374705
vn 0.6033 -0.4678 -0.6459
vn 0.4634 -0.4689 -0.7519
vn 0.3055 -0.4690 -0.8287
vn 0.1358 -0.4683 -0.8731
vn -0.0394 -0.4666 -0.8836
vn -0.2133 -0.4641 -0.8597
vn -0.3791 -0.4609 -0.8024
vn -0.5306 -0.4571 -0.7138
vn -0.6619 -0.4529 -0.5974
vn -0.7679 -0.4484 -0.4576
vn -0.8446 -0.4437 -0.2998
vn -0.8890 -0.4391 -0.1300
vn -0.8994 -0.4348 0.0451
vn -0.8755 -0.4308 0.2189
vn -0.8181 -0.4274 0.3848
vn -0.7294 -0.4247 0.5362
vn -0.6129 -0.4228 0.6675
vn -0.4731 -0.4218 0.7735
vn -0.3152 -0.4216 0.8502
vn -0.1454 -0.4224 0.8947
vn 0.0297 -0.4241 0.9051
vn 0.2036 -0.4265 0.8813
vn 0.3694 -0.4297 0.8239
vn 0.5209 -0.4335 0.7353
vn 0.6522 -0.4378 0.6189
vn 0.7582 -0.4423 0.4791
vn 0.8349 -0.4470 0.3213
vn 0.8793 -0.4515 0.1516
vn 0.8897 -0.4559 -0.0236
vn 0.8658 -0.4598 -0.1974
vn 0.8084 -0.4632 -0.3632
vn 0.7197 -0.4659 -0.5147
vn 0.0109 0.9996 -0.0242
usemtl None
s off
f 1//1 10//1 2//1
f 2//2 10//2 3//2
f 3//3 10//3 4//3
f 4//4 10//4 5//4
f 5//5 10//5 6//5
f 6//6 10//6 7//6
f 7//7 10//7 8//7
f 8//8 10//8 9//8
f 9//9 10//9 11//9
f 11//10 10//10 12//10
f 12//11 10//11 13//11
f 13//12 10//12 14//12
f 14//13 10//13 15//13
f 15//14 10//14 16//14
f 16//15 10//15 17//15
f 17//16 10//16 18//16
f 18//17 10//17 19//17
f 19//18 10//18 20//18
f 20//19 10//19 21//19
f 21//20 10//20 22//20
f 22//21 10//21 23//21
f 23//22 10//22 24//22
f 24//23 10//23 25//23
f 25//24 10//24 26//24
f 26//25 10//25 27//25
f 27//26 10//26 28//26
f 28//27 10//27 29//27
f 29//28 10//28 30//28
f 30//29 10//29 31//29
f 31//30 10//30 32//30
f 32//31 10//31 33//31
f 33//32 10//32 1//32
f 1//33 2//33 3//33 4//33 5//33 6//33 7//33 8//33 9//33 11//33 12//33 13//33 14//33 15//33 16//33 17//33 18//33 19//33 20//33 21//33 22//33 23//33 24//33 25//33 26//33 27//33 28//33 29//33 30//33 31//33 32//33 33//33
